<svg id="visual" viewBox="0 0 1080 180" width="1080" height="180" xmlns="http://www.w3.org/2000/svg" xmlns:xlink="http://www.w3.org/1999/xlink" version="1.1"><rect x="0" y="0" width="1080" height="180" fill="#474E68"></rect><path d="M0 159L20 153.3C40 147.7 80 136.3 120 128C160 119.7 200 114.3 240 105.8C280 97.3 320 85.7 360 89.7C400 93.7 440 113.3 480 126.5C520 139.7 560 146.3 600 142C640 137.7 680 122.3 720 121.3C760 120.3 800 133.7 840 129.8C880 126 920 105 960 96.5C1000 88 1040 92 1060 94L1080 96L1080 0L1060 0C1040 0 1000 0 960 0C920 0 880 0 840 0C800 0 760 0 720 0C680 0 640 0 600 0C560 0 520 0 480 0C440 0 400 0 360 0C320 0 280 0 240 0C200 0 160 0 120 0C80 0 40 0 20 0L0 0Z" fill="#50577a"></path><path d="M0 117L20 118.2C40 119.3 80 121.7 120 113.8C160 106 200 88 240 81C280 74 320 78 360 75.7C400 73.3 440 64.7 480 62C520 59.3 560 62.7 600 64.7C640 66.7 680 67.3 720 76.2C760 85 800 102 840 109.5C880 117 920 115 960 112.2C1000 109.3 1040 105.7 1060 103.8L1080 102L1080 0L1060 0C1040 0 1000 0 960 0C920 0 880 0 840 0C800 0 760 0 720 0C680 0 640 0 600 0C560 0 520 0 480 0C440 0 400 0 360 0C320 0 280 0 240 0C200 0 160 0 120 0C80 0 40 0 20 0L0 0Z" fill="#3b3e54"></path><path d="M0 62L20 63.8C40 65.7 80 69.3 120 66C160 62.7 200 52.3 240 54.8C280 57.3 320 72.7 360 78.2C400 83.7 440 79.3 480 76.8C520 74.3 560 73.7 600 70.2C640 66.7 680 60.3 720 56.5C760 52.7 800 51.3 840 51.2C880 51 920 52 960 58.2C1000 64.3 1040 75.7 1060 81.3L1080 87L1080 0L1060 0C1040 0 1000 0 960 0C920 0 880 0 840 0C800 0 760 0 720 0C680 0 640 0 600 0C560 0 520 0 480 0C440 0 400 0 360 0C320 0 280 0 240 0C200 0 160 0 120 0C80 0 40 0 20 0L0 0Z" fill="#262731"></path><path d="M0 13L20 19.5C40 26 80 39 120 46C160 53 200 54 240 53.2C280 52.3 320 49.7 360 47.3C400 45 440 43 480 43.5C520 44 560 47 600 47.8C640 48.7 680 47.3 720 41.3C760 35.3 800 24.7 840 19.8C880 15 920 16 960 18.5C1000 21 1040 25 1060 27L1080 29L1080 0L1060 0C1040 0 1000 0 960 0C920 0 880 0 840 0C800 0 760 0 720 0C680 0 640 0 600 0C560 0 520 0 480 0C440 0 400 0 360 0C320 0 280 0 240 0C200 0 160 0 120 0C80 0 40 0 20 0L0 0Z" fill="#111111"></path></svg>