<svg id="visual" viewBox="0 0 960 200" width="960" height="200" xmlns="http://www.w3.org/2000/svg" xmlns:xlink="http://www.w3.org/1999/xlink" version="1.1"><rect x="0" y="0" width="960" height="200" fill="#111111"></rect><path d="M0 162L16 160.3C32 158.7 64 155.3 96 147.2C128 139 160 126 192 122.7C224 119.3 256 125.7 288 129.2C320 132.7 352 133.3 384 127.7C416 122 448 110 480 113.3C512 116.7 544 135.3 576 133.8C608 132.3 640 110.7 672 94.3C704 78 736 67 768 78C800 89 832 122 864 138C896 154 928 153 944 152.5L960 152L960 0L944 0C928 0 896 0 864 0C832 0 800 0 768 0C736 0 704 0 672 0C640 0 608 0 576 0C544 0 512 0 480 0C448 0 416 0 384 0C352 0 320 0 288 0C256 0 224 0 192 0C160 0 128 0 96 0C64 0 32 0 16 0L0 0Z" fill="#6b728e"></path><path d="M0 65L16 74.3C32 83.7 64 102.3 96 102.3C128 102.3 160 83.7 192 78.3C224 73 256 81 288 83.3C320 85.7 352 82.3 384 85.3C416 88.3 448 97.7 480 90.7C512 83.7 544 60.3 576 61.8C608 63.3 640 89.7 672 100.3C704 111 736 106 768 97.8C800 89.7 832 78.3 864 70.5C896 62.7 928 58.3 944 56.2L960 54L960 0L944 0C928 0 896 0 864 0C832 0 800 0 768 0C736 0 704 0 672 0C640 0 608 0 576 0C544 0 512 0 480 0C448 0 416 0 384 0C352 0 320 0 288 0C256 0 224 0 192 0C160 0 128 0 96 0C64 0 32 0 16 0L0 0Z" fill="#59607b"></path><path d="M0 23L16 27C32 31 64 39 96 39.3C128 39.7 160 32.3 192 32.5C224 32.7 256 40.3 288 45C320 49.7 352 51.3 384 52.7C416 54 448 55 480 52.7C512 50.3 544 44.7 576 44.5C608 44.3 640 49.7 672 52C704 54.3 736 53.7 768 53.3C800 53 832 53 864 49C896 45 928 37 944 33L960 29L960 0L944 0C928 0 896 0 864 0C832 0 800 0 768 0C736 0 704 0 672 0C640 0 608 0 576 0C544 0 512 0 480 0C448 0 416 0 384 0C352 0 320 0 288 0C256 0 224 0 192 0C160 0 128 0 96 0C64 0 32 0 16 0L0 0Z" fill="#474e68"></path></svg>