<svg id="visual" viewBox="0 0 960 200" width="960" height="200" xmlns="http://www.w3.org/2000/svg" xmlns:xlink="http://www.w3.org/1999/xlink" version="1.1"><rect x="0" y="0" width="960" height="200" fill="#111111"></rect><path d="M0 111L16 106.7C32 102.3 64 93.7 96 82C128 70.3 160 55.7 192 49.7C224 43.7 256 46.3 288 59C320 71.7 352 94.3 384 107.8C416 121.3 448 125.7 480 117.8C512 110 544 90 576 86.7C608 83.3 640 96.7 672 100.2C704 103.7 736 97.3 768 100.2C800 103 832 115 864 110.8C896 106.7 928 86.3 944 76.2L960 66L960 201L944 201C928 201 896 201 864 201C832 201 800 201 768 201C736 201 704 201 672 201C640 201 608 201 576 201C544 201 512 201 480 201C448 201 416 201 384 201C352 201 320 201 288 201C256 201 224 201 192 201C160 201 128 201 96 201C64 201 32 201 16 201L0 201Z" fill="#6b728e"></path><path d="M0 95L16 98.3C32 101.7 64 108.3 96 114.3C128 120.3 160 125.7 192 120.7C224 115.7 256 100.3 288 96.7C320 93 352 101 384 100C416 99 448 89 480 94.8C512 100.7 544 122.3 576 124.7C608 127 640 110 672 112.5C704 115 736 137 768 138.8C800 140.7 832 122.3 864 119C896 115.7 928 127.3 944 133.2L960 139L960 201L944 201C928 201 896 201 864 201C832 201 800 201 768 201C736 201 704 201 672 201C640 201 608 201 576 201C544 201 512 201 480 201C448 201 416 201 384 201C352 201 320 201 288 201C256 201 224 201 192 201C160 201 128 201 96 201C64 201 32 201 16 201L0 201Z" fill="#59607b"></path><path d="M0 132L16 136.7C32 141.3 64 150.7 96 153.3C128 156 160 152 192 154.3C224 156.7 256 165.3 288 164.3C320 163.3 352 152.7 384 146.3C416 140 448 138 480 143.2C512 148.3 544 160.7 576 160C608 159.3 640 145.7 672 136.5C704 127.3 736 122.7 768 119.8C800 117 832 116 864 116C896 116 928 117 944 117.5L960 118L960 201L944 201C928 201 896 201 864 201C832 201 800 201 768 201C736 201 704 201 672 201C640 201 608 201 576 201C544 201 512 201 480 201C448 201 416 201 384 201C352 201 320 201 288 201C256 201 224 201 192 201C160 201 128 201 96 201C64 201 32 201 16 201L0 201Z" fill="#474e68"></path></svg>