<svg id="visual" viewBox="0 0 1080 80" width="1080" height="80" xmlns="http://www.w3.org/2000/svg" xmlns:xlink="http://www.w3.org/1999/xlink" version="1.1"><rect x="0" y="0" width="1080" height="80" fill="#474E68"></rect><path d="M0 62L20 59.3C40 56.7 80 51.3 120 50.3C160 49.3 200 52.7 240 55.3C280 58 320 60 360 60.7C400 61.3 440 60.7 480 60C520 59.3 560 58.7 600 60.3C640 62 680 66 720 63.2C760 60.3 800 50.7 840 48.8C880 47 920 53 960 54.5C1000 56 1040 53 1060 51.5L1080 50L1080 0L1060 0C1040 0 1000 0 960 0C920 0 880 0 840 0C800 0 760 0 720 0C680 0 640 0 600 0C560 0 520 0 480 0C440 0 400 0 360 0C320 0 280 0 240 0C200 0 160 0 120 0C80 0 40 0 20 0L0 0Z" fill="#50577a"></path><path d="M0 40L20 41C40 42 80 44 120 41.7C160 39.3 200 32.7 240 30C280 27.3 320 28.7 360 31.7C400 34.7 440 39.3 480 40.5C520 41.7 560 39.3 600 37.8C640 36.3 680 35.7 720 36.5C760 37.3 800 39.7 840 39.2C880 38.7 920 35.3 960 37C1000 38.7 1040 45.3 1060 48.7L1080 52L1080 0L1060 0C1040 0 1000 0 960 0C920 0 880 0 840 0C800 0 760 0 720 0C680 0 640 0 600 0C560 0 520 0 480 0C440 0 400 0 360 0C320 0 280 0 240 0C200 0 160 0 120 0C80 0 40 0 20 0L0 0Z" fill="#3b3e54"></path><path d="M0 21L20 21.5C40 22 80 23 120 21.7C160 20.3 200 16.7 240 17.8C280 19 320 25 360 25.5C400 26 440 21 480 20.5C520 20 560 24 600 28C640 32 680 36 720 33.7C760 31.3 800 22.7 840 20C880 17.3 920 20.7 960 22C1000 23.3 1040 22.7 1060 22.3L1080 22L1080 0L1060 0C1040 0 1000 0 960 0C920 0 880 0 840 0C800 0 760 0 720 0C680 0 640 0 600 0C560 0 520 0 480 0C440 0 400 0 360 0C320 0 280 0 240 0C200 0 160 0 120 0C80 0 40 0 20 0L0 0Z" fill="#262731"></path><path d="M0 11L20 12C40 13 80 15 120 16.8C160 18.7 200 20.3 240 18.2C280 16 320 10 360 10.2C400 10.3 440 16.7 480 19.2C520 21.7 560 20.3 600 17.7C640 15 680 11 720 10C760 9 800 11 840 12.5C880 14 920 15 960 15.5C1000 16 1040 16 1060 16L1080 16L1080 0L1060 0C1040 0 1000 0 960 0C920 0 880 0 840 0C800 0 760 0 720 0C680 0 640 0 600 0C560 0 520 0 480 0C440 0 400 0 360 0C320 0 280 0 240 0C200 0 160 0 120 0C80 0 40 0 20 0L0 0Z" fill="#111111"></path></svg>