<svg id="visual" viewBox="0 0 1080 80" width="1080" height="80" xmlns="http://www.w3.org/2000/svg" xmlns:xlink="http://www.w3.org/1999/xlink" version="1.1"><rect x="0" y="0" width="1080" height="80" fill="#474E68"></rect><path d="M0 26L20 23.5C40 21 80 16 120 16.7C160 17.3 200 23.7 240 28.2C280 32.7 320 35.3 360 32C400 28.7 440 19.3 480 14.7C520 10 560 10 600 13C640 16 680 22 720 28C760 34 800 40 840 41C880 42 920 38 960 36C1000 34 1040 34 1060 34L1080 34L1080 81L1060 81C1040 81 1000 81 960 81C920 81 880 81 840 81C800 81 760 81 720 81C680 81 640 81 600 81C560 81 520 81 480 81C440 81 400 81 360 81C320 81 280 81 240 81C200 81 160 81 120 81C80 81 40 81 20 81L0 81Z" fill="#50577a"></path><path d="M0 47L20 46.7C40 46.3 80 45.7 120 45.3C160 45 200 45 240 45.2C280 45.3 320 45.7 360 44.7C400 43.7 440 41.3 480 38.8C520 36.3 560 33.7 600 34.8C640 36 680 41 720 40.3C760 39.7 800 33.3 840 31.5C880 29.7 920 32.3 960 31.8C1000 31.3 1040 27.7 1060 25.8L1080 24L1080 81L1060 81C1040 81 1000 81 960 81C920 81 880 81 840 81C800 81 760 81 720 81C680 81 640 81 600 81C560 81 520 81 480 81C440 81 400 81 360 81C320 81 280 81 240 81C200 81 160 81 120 81C80 81 40 81 20 81L0 81Z" fill="#3b3e54"></path><path d="M0 43L20 42.2C40 41.3 80 39.7 120 39.7C160 39.7 200 41.3 240 43.2C280 45 320 47 360 49.7C400 52.3 440 55.7 480 57.2C520 58.7 560 58.3 600 56.2C640 54 680 50 720 49C760 48 800 50 840 52C880 54 920 56 960 57.2C1000 58.3 1040 58.7 1060 58.8L1080 59L1080 81L1060 81C1040 81 1000 81 960 81C920 81 880 81 840 81C800 81 760 81 720 81C680 81 640 81 600 81C560 81 520 81 480 81C440 81 400 81 360 81C320 81 280 81 240 81C200 81 160 81 120 81C80 81 40 81 20 81L0 81Z" fill="#262731"></path><path d="M0 71L20 69.7C40 68.3 80 65.7 120 62.8C160 60 200 57 240 55.5C280 54 320 54 360 55.7C400 57.3 440 60.7 480 60.5C520 60.3 560 56.7 600 58.2C640 59.7 680 66.3 720 69.7C760 73 800 73 840 70.3C880 67.7 920 62.3 960 59.3C1000 56.3 1040 55.7 1060 55.3L1080 55L1080 81L1060 81C1040 81 1000 81 960 81C920 81 880 81 840 81C800 81 760 81 720 81C680 81 640 81 600 81C560 81 520 81 480 81C440 81 400 81 360 81C320 81 280 81 240 81C200 81 160 81 120 81C80 81 40 81 20 81L0 81Z" fill="#111111"></path></svg>