<svg id="visual" viewBox="0 0 1080 120" width="1080" height="120" xmlns="http://www.w3.org/2000/svg" xmlns:xlink="http://www.w3.org/1999/xlink" version="1.1"><path d="M0 18L72 18L72 15L144 15L144 20L216 20L216 23L288 23L288 15L360 15L360 21L432 21L432 21L504 21L504 23L576 23L576 25L648 25L648 17L720 17L720 25L792 25L792 19L864 19L864 26L936 26L936 30L1008 30L1008 14L1080 14L1080 17L1080 0L1080 0L1008 0L1008 0L936 0L936 0L864 0L864 0L792 0L792 0L720 0L720 0L648 0L648 0L576 0L576 0L504 0L504 0L432 0L432 0L360 0L360 0L288 0L288 0L216 0L216 0L144 0L144 0L72 0L72 0L0 0Z" fill="#111111"></path><path d="M0 55L72 55L72 71L144 71L144 42L216 42L216 50L288 50L288 47L360 47L360 55L432 55L432 66L504 66L504 57L576 57L576 43L648 43L648 66L720 66L720 55L792 55L792 62L864 62L864 59L936 59L936 81L1008 81L1008 63L1080 63L1080 62L1080 15L1080 12L1008 12L1008 28L936 28L936 24L864 24L864 17L792 17L792 23L720 23L720 15L648 15L648 23L576 23L576 21L504 21L504 19L432 19L432 19L360 19L360 13L288 13L288 21L216 21L216 18L144 18L144 13L72 13L72 16L0 16Z" fill="#23242c"></path><path d="M0 99L72 99L72 99L144 99L144 98L216 98L216 93L288 93L288 91L360 91L360 85L432 85L432 92L504 92L504 105L576 105L576 89L648 89L648 107L720 107L720 90L792 90L792 95L864 95L864 87L936 87L936 98L1008 98L1008 85L1080 85L1080 99L1080 60L1080 61L1008 61L1008 79L936 79L936 57L864 57L864 60L792 60L792 53L720 53L720 64L648 64L648 41L576 41L576 55L504 55L504 64L432 64L432 53L360 53L360 45L288 45L288 48L216 48L216 40L144 40L144 69L72 69L72 53L0 53Z" fill="#353849"></path><path d="M0 121L72 121L72 121L144 121L144 121L216 121L216 121L288 121L288 121L360 121L360 121L432 121L432 121L504 121L504 121L576 121L576 121L648 121L648 121L720 121L720 121L792 121L792 121L864 121L864 121L936 121L936 121L1008 121L1008 121L1080 121L1080 121L1080 97L1080 83L1008 83L1008 96L936 96L936 85L864 85L864 93L792 93L792 88L720 88L720 105L648 105L648 87L576 87L576 103L504 103L504 90L432 90L432 83L360 83L360 89L288 89L288 91L216 91L216 96L144 96L144 97L72 97L72 97L0 97Z" fill="#474e68"></path></svg>